# xmcd
#
# Track frame offsets: 
#        192
#        12100
#        24338
#        37029
#        50057
#        62236
#        73939
#        91102
#        105757
#        117968
#        131661
#        143107
#        154055
#        166603
#        178048
#        201661
#        211436
#        233759
#        242617
#        256917
#
# Disc length: 3622 seconds
#
# Revision: 0
# Processed by: cddbd v1.5.2PL0 Copyright (c) Steve Scherf et al.
# Submitted via: ExactAudioCopy v1.0b3
#
DISCID=130e2414
DTITLE=The Platters - Greatest Hits
DYEAR=1990
DGENRE=Pop
TTITLE0=Only You
TTITLE1=The Great Pretender
TTITLE2=My Prayer
TTITLE3=I'm Sorry
TTITLE4=I Love You Thousand Times
TTITLE5=Heaven On Earth
TTITLE6=If I Had A Love
TTITLE7=I Love You Because
TTITLE8=With This Ring
TTITLE9=Alone In The Night
TTITLE10=Smoke Gets In Your Eyes
TTITLE11=Red Sails In The Sunset
TTITLE12=Twilight Time
TTITLE13=The Magic Touch
TTITLE14=My Way
TTITLE15=Doesnt It Ring A Bell
TTITLE16=Unchained Melody
TTITLE17=Sweet Sweet Lovin
TTITLE18=Harbor Lights
TTITLE19=Why
EXTD=
EXTT0=
EXTT1=
EXTT2=
EXTT3=
EXTT4=
EXTT5=
EXTT6=
EXTT7=
EXTT8=
EXTT9=
EXTT10=
EXTT11=
EXTT12=
EXTT13=
EXTT14=
EXTT15=
EXTT16=
EXTT17=
EXTT18=
EXTT19=
PLAYORDER=
